<?xml version="1.0" encoding="UTF-8"?>
<svg width="185px" height="143px" viewBox="0 0 185 143" version="1.1" xmlns="http://www.w3.org/2000/svg" xmlns:xlink="http://www.w3.org/1999/xlink">
    <!-- Generator: Sketch 50.2 (55047) - http://www.bohemiancoding.com/sketch -->
    <title>undraw_mobile_apps_4wgf</title>
    <desc>Created with Sketch.</desc>
    <defs>
        <linearGradient x1="10.8549605%" y1="101.74029%" x2="89.1461511%" y2="-1.73567835%" id="linearGradient-1">
            <stop stop-color="#808080" stop-opacity="0.25" offset="0%"></stop>
            <stop stop-color="#808080" stop-opacity="0.12" offset="54%"></stop>
            <stop stop-color="#808080" stop-opacity="0.1" offset="100%"></stop>
        </linearGradient>
        <linearGradient x1="49.8838081%" y1="100%" x2="49.8838081%" y2="0.0522411741%" id="linearGradient-2">
            <stop stop-color="#808080" stop-opacity="0.25" offset="0%"></stop>
            <stop stop-color="#808080" stop-opacity="0.12" offset="54%"></stop>
            <stop stop-color="#808080" stop-opacity="0.1" offset="100%"></stop>
        </linearGradient>
        <linearGradient x1="50.0259293%" y1="100%" x2="50.0259293%" y2="0.000865642094%" id="linearGradient-3">
            <stop stop-color="#808080" stop-opacity="0.25" offset="0%"></stop>
            <stop stop-color="#808080" stop-opacity="0.12" offset="54%"></stop>
            <stop stop-color="#808080" stop-opacity="0.1" offset="100%"></stop>
        </linearGradient>
    </defs>
    <g id="Main" stroke="none" stroke-width="1" fill="none" fill-rule="evenodd">
        <g id="01-Type" transform="translate(-364.000000, -389.000000)">
            <g id="undraw_mobile_apps_4wgf" transform="translate(364.000000, 389.000000)">
                <path d="M42.4661957,113.539128 C44.9773602,113.700915 47.6313203,114.553795 49.9160515,113.521151 C50.5055938,113.255501 51.0400577,112.872004 51.6520393,112.658285 C53.057557,112.166931 54.6017905,112.644304 56.0175079,113.1037 C67.1008633,116.695663 78.4934602,119.298203 90.0559236,120.879482 C92.4385719,121.205055 94.925257,121.478695 97.1957087,120.719692 C98.8562187,120.166419 100.294375,119.097824 101.938566,118.498611 C104.627205,117.521894 107.597356,117.885417 110.45939,118.039215 C117.9558,118.439228 125.455891,117.320689 132.490727,114.753532 L132.859955,114.615713 C136.413128,113.272093 140.42115,113.799465 143.485996,116.013876 C144.681381,116.872368 145.949379,117.629455 147.276202,118.276902 C151.737787,120.479578 153.599385,125.758401 151.476435,130.187252 L151.427477,130.291115 C150.260632,132.781842 149.287581,135.570178 147.00081,137.1521 C144.844595,138.644139 142.0152,138.706058 139.375519,138.71205 L123.172287,138.75 C121.491378,138.75 119.790069,138.75 118.158118,138.362509 C116.691402,138.008974 115.326683,137.345845 113.974204,136.686711 L106.724262,133.165338 C103.80511,131.745205 100.604446,130.283126 97.4099023,130.936267 C94.1460005,131.603391 91.7939513,134.289861 88.9502768,135.983635 C84.5378896,138.614178 78.6710262,138.718042 74.1648018,136.241297 C72.0065467,135.054856 70.1318432,133.325128 67.777754,132.580107 C63.889631,131.347727 59.7587553,133.053485 55.7584357,133.870412 C47.97403,135.460323 38.8045059,133.285181 32.8397254,128.026092 C25.1573166,121.250994 34.1779252,113.007826 42.4661957,113.539128 Z" id="Shape" fill="#F0E4E4" fill-rule="nonzero"></path>
                <path d="M13.119687,126.960784 C13.119687,126.960784 7.43654137,106.801118 14.1856429,91.9477016 C17.0184304,85.7169403 17.959439,78.7228954 16.6494457,71.9615091 C16.0238711,68.7523028 15.1181166,65.6098205 13.9435577,62.5735294" id="Shape" stroke="#535461" stroke-width="2"></path>
                <path d="M18.1372549,53.5715136 C18.1372549,56.1121979 13.6029412,63.4803922 13.6029412,63.4803922 C13.6029412,63.4803922 9.06862745,56.1121979 9.06862745,53.5715136 C9.06862745,51.0304927 11.0987089,48.9705882 13.6029412,48.9705882 C16.1071735,48.9705882 18.1372549,51.0304927 18.1372549,53.5715136 Z" id="Shape" fill="#3E7293" fill-rule="nonzero"></path>
                <path d="M24.7211694,65.426694 C23.4676197,67.3736274 16.3235294,70.7352941 16.3235294,70.7352941 C16.3235294,70.7352941 16.4530756,62.8097245 17.7066253,60.862791 C18.5179283,59.6036478 19.9360855,58.875089 21.4268908,58.9515557 C22.9176961,59.0280223 24.2546606,59.8978973 24.9341628,61.2335071 C25.6136651,62.569117 25.5324724,64.1675508 24.7211694,65.426694 Z" id="Shape" fill="#3E7293" fill-rule="nonzero"></path>
                <path d="M26.5962341,90.0849 C24.4606968,91.1944134 16.3235294,90.4289509 16.3235294,90.4289509 C16.3235294,90.4289509 20.5689222,83.2222034 22.7044594,82.11269 C24.0882128,81.3786588 25.7477051,81.4659037 27.0517853,82.3412432 C28.3558655,83.2165827 29.1041263,84.7454971 29.0119833,86.3464976 C28.9198403,87.9474982 28.0014538,89.3745479 26.6061117,90.0849 L26.5962341,90.0849 Z" id="Shape" fill="#3E7293" fill-rule="nonzero"></path>
                <path d="M20.9545389,108.354651 C19.0309489,109.925851 10.8823529,110.637255 10.8823529,110.637255 C10.8823529,110.637255 13.8842593,102.231337 15.8058744,100.660137 C17.7294453,99.1263496 20.4117323,99.5877256 21.8223361,101.695019 C23.2329398,103.802313 22.8469349,106.771341 20.9565138,108.354651 L20.9545389,108.354651 Z" id="Shape" fill="#3E7293" fill-rule="nonzero"></path>
                <path d="M8.53719356,72.762244 C10.2341938,74.4395474 18.1372549,76.1764706 18.1372549,76.1764706 C18.1372549,76.1764706 16.2020106,68.1874189 14.5050104,66.5101155 C12.8061553,64.848478 10.1074055,64.8956372 8.46560856,66.6156507 C6.82381162,68.3356642 6.85579988,71.0823132 8.53719356,72.762244 Z" id="Shape" fill="#3E7293" fill-rule="nonzero"></path>
                <path d="M5.00941098,92.7999967 C7.17291933,93.9196417 15.4166667,93.1471894 15.4166667,93.1471894 C15.4166667,93.1471894 11.1156681,85.8746329 8.95215977,84.7549879 C6.80316587,83.7352448 4.25354091,84.6487952 3.18957795,86.8197657 C2.12561499,88.9907362 2.93079084,91.6366589 5.00941098,92.7999967 Z" id="Shape" fill="#3E7293" fill-rule="nonzero"></path>
                <path d="M1.71702973,113.795827 C3.64061975,115.367027 11.7892157,116.078431 11.7892157,116.078431 C11.7892157,116.078431 8.78730928,107.672513 6.8656942,106.101314 C4.94212334,104.567526 2.25983631,105.028902 0.849232543,107.136196 C-0.561371222,109.24349 -0.175366305,112.212518 1.71505479,113.795827 L1.71702973,113.795827 Z" id="Shape" fill="#3E7293" fill-rule="nonzero"></path>
                <path d="M18.1372549,53.5715136 C18.1372549,56.1121979 13.6029412,63.4803922 13.6029412,63.4803922 C13.6029412,63.4803922 9.06862745,56.1121979 9.06862745,53.5715136 C9.06862745,51.0304927 11.0987089,48.9705882 13.6029412,48.9705882 C16.1071735,48.9705882 18.1372549,51.0304927 18.1372549,53.5715136 Z" id="Shape" fill="#000000" fill-rule="nonzero" opacity="0.25"></path>
                <path d="M24.7211694,65.426694 C23.4676197,67.3736274 16.3235294,70.7352941 16.3235294,70.7352941 C16.3235294,70.7352941 16.4530756,62.8097245 17.7066253,60.862791 C18.5179283,59.6036478 19.9360855,58.875089 21.4268908,58.9515557 C22.9176961,59.0280223 24.2546606,59.8978973 24.9341628,61.2335071 C25.6136651,62.569117 25.5324724,64.1675508 24.7211694,65.426694 Z" id="Shape" fill="#000000" fill-rule="nonzero" opacity="0.25"></path>
                <path d="M26.5962341,90.0849 C24.4606968,91.1944134 16.3235294,90.4289509 16.3235294,90.4289509 C16.3235294,90.4289509 20.5689222,83.2222034 22.7044594,82.11269 C24.0882128,81.3786588 25.7477051,81.4659037 27.0517853,82.3412432 C28.3558655,83.2165827 29.1041263,84.7454971 29.0119833,86.3464976 C28.9198403,87.9474982 28.0014538,89.3745479 26.6061117,90.0849 L26.5962341,90.0849 Z" id="Shape" fill="#000000" fill-rule="nonzero" opacity="0.25"></path>
                <path d="M20.9545389,108.354651 C19.0309489,109.925851 10.8823529,110.637255 10.8823529,110.637255 C10.8823529,110.637255 13.8842593,102.231337 15.8058744,100.660137 C17.7294453,99.1263496 20.4117323,99.5877256 21.8223361,101.695019 C23.2329398,103.802313 22.8469349,106.771341 20.9565138,108.354651 L20.9545389,108.354651 Z" id="Shape" fill="#000000" fill-rule="nonzero" opacity="0.25"></path>
                <path d="M8.53719356,72.762244 C10.2341938,74.4395474 18.1372549,76.1764706 18.1372549,76.1764706 C18.1372549,76.1764706 16.2020106,68.1874189 14.5050104,66.5101155 C12.8061553,64.848478 10.1074055,64.8956372 8.46560856,66.6156507 C6.82381162,68.3356642 6.85579988,71.0823132 8.53719356,72.762244 Z" id="Shape" fill="#000000" fill-rule="nonzero" opacity="0.25"></path>
                <path d="M5.00941098,92.7999967 C7.17291933,93.9196417 15.4166667,93.1471894 15.4166667,93.1471894 C15.4166667,93.1471894 11.1156681,85.8746329 8.95215977,84.7549879 C6.80316587,83.7352448 4.25354091,84.6487952 3.18957795,86.8197657 C2.12561499,88.9907362 2.93079084,91.6366589 5.00941098,92.7999967 Z" id="Shape" fill="#000000" fill-rule="nonzero" opacity="0.25"></path>
                <path d="M1.71702973,113.795827 C3.64061975,115.367027 11.7892157,116.078431 11.7892157,116.078431 C11.7892157,116.078431 8.78730928,107.672513 6.8656942,106.101314 C4.94212334,104.567526 2.25983631,105.028902 0.849232543,107.136196 C-0.561371222,109.24349 -0.175366305,112.212518 1.71505479,113.795827 L1.71702973,113.795827 Z" id="Shape" fill="#000000" fill-rule="nonzero" opacity="0.25"></path>
                <path d="M120.579357,70.360341 C119.837396,64.5144271 122.161537,58.4971674 120.779886,52.7742192 C119.717078,48.3534987 116.568761,44.6625096 115.534027,40.2337258 C114.014011,33.6701755 117.491198,26.9292319 121.928922,21.8896509 C124.980986,18.4163717 128.811105,15.2636098 133.377169,14.6326543 C136.196618,14.2294878 139.094273,14.85238 141.69715,16.007452 C147.047782,18.4189589 151.159521,22.9590591 153.047137,28.539882 C153.648726,30.3339729 153.995643,32.2107128 154.735598,33.9503762 C156.008962,36.947919 158.345134,39.3669179 159.798975,42.2818115 C161.758241,46.274445 161.951909,50.9124965 160.332385,55.0561414 C158.64994,59.2772945 155.11861,62.8090329 154.597232,67.3265133 C154.218231,70.5820826 155.433442,74.1480901 153.855272,77.0166196 C152.664125,79.1816236 150.211646,80.2742048 147.88951,81.0926328 C142.487238,82.9875152 134.935285,86.0515805 129.52098,83.134671 C124.784467,80.584643 121.265168,75.7567244 120.579357,70.360341 Z" id="Shape" fill="#3E7293" fill-rule="nonzero"></path>
                <path d="M135.122549,74.3627451 C135.122549,74.3627451 142.739812,71.3607167 143.700133,69.6720757 C144.660453,67.9834348 146.004902,58.0392157 146.004902,58.0392157" id="Shape" stroke="#333333" stroke-width="3"></path>
                <path d="M135.122549,124.240196 L135.122549,54.4117647" id="Shape" stroke="#333333" stroke-width="3"></path>
                <g id="Group" opacity="0.5" transform="translate(57.132353, 0.000000)" fill="url(#linearGradient-1)" fill-rule="nonzero">
                    <path d="M69.4225978,3.59311376e-16 L2.78572202,0.163863122 C2.05965866,0.165470956 1.3639659,0.458159272 0.851689115,0.977539605 C0.339412325,1.49691994 0.0525148208,2.20044708 0.0541111472,2.93335219 L0.356732748,128.733701 C0.358324973,129.466958 0.648556254,130.169513 1.1635219,130.686675 C1.67848755,131.203838 2.37596232,131.493201 3.10237244,131.491052 L69.7392482,131.327189 C70.4653115,131.325581 71.1610043,131.032893 71.6732811,130.513512 C72.1855579,129.994132 72.4724554,129.290605 72.4708591,128.5577 L72.1702416,2.75735106 C72.1686503,2.02374284 71.8781438,1.3208796 71.3627442,0.803659123 C70.8473446,0.286438647 70.1493545,-0.00268700721 69.4225978,3.59311376e-16 Z" id="Shape"></path>
                </g>
                <rect id="Rectangle-path" fill="#535461" fill-rule="nonzero" transform="translate(92.046569, 66.654412) rotate(-0.140000) translate(-92.046569, -66.654412) " x="57.1323529" y="2.72058824" width="69.8284314" height="127.867647" rx="13.64"></rect>
                <path d="M126.960777,124.094654 C126.964156,125.590151 125.755442,126.805542 124.260311,126.810036 L61.9418519,126.960777 C60.446718,126.964157 59.2316224,125.755149 59.2271295,124.259654 L59.184362,105.977168 L58.9460855,7.40044433 C58.9427063,5.90494707 60.1514211,4.68955612 61.646552,4.68506219 L74.6804781,4.6545065 C75.1139771,7.47090832 77.5339347,9.5517132 80.3828207,9.5576759 L105.008795,9.49860157 C107.865876,9.48861548 110.287596,7.3934354 110.709101,4.56691353 L123.946682,4.5343208 C125.441816,4.53094073 126.656911,5.73994929 126.661404,7.23544361 L126.915973,105.977168 L126.960777,124.094654 Z" id="Shape" fill="#FFFFFF" fill-rule="nonzero"></path>
                <path d="M128.774503,122.421975 C128.777894,123.843876 127.56493,124.999456 126.064542,125.003729 L63.5269885,125.147052 C62.0265981,125.150266 60.8072305,124.000754 60.8027219,122.578856 L60.7598039,105.196078 L128.729541,105.196078 L128.774503,122.421975 Z" id="Shape" fill="#E6E6E6" fill-rule="nonzero"></path>
                <rect id="Rectangle-path" fill="#FFFFFF" fill-rule="nonzero" transform="translate(92.500000, 6.848039) rotate(-0.860000) translate(-92.500000, -6.848039) " x="84.3389343" y="6.34804446" width="16.3235294" height="1" rx="0.5"></rect>
                <circle id="Oval" fill="#FFFFFF" fill-rule="nonzero" transform="translate(102.928922, 7.708333) rotate(-0.860000) translate(-102.928922, -7.708333) " cx="102.928922" cy="7.70833333" r="1.36029412"></circle>
                <path d="M144.157974,70.3601731 C143.415988,64.5142767 145.740209,58.4970351 144.358511,52.7741041 C143.295666,48.353397 140.14724,44.6624189 139.112471,40.2336485 C137.592402,33.6701179 141.069709,26.9291946 145.507586,21.8896287 C148.559755,18.41636 152.390006,15.2636076 156.956226,14.6326539 C159.775773,14.2294887 162.673528,14.852379 165.276494,16.0074475 C170.627311,18.4189471 174.739191,22.9590337 176.626872,28.5398399 C177.228482,30.3339253 177.57541,32.2106596 178.315391,33.9503178 C179.588799,36.9478515 181.925051,39.3668431 183.378943,42.281728 C185.338674,46.2774653 185.530186,50.9189381 183.906354,55.0640829 C182.223851,59.2852232 178.6924,62.816951 178.171004,67.3344178 C177.79199,70.5899773 179.007242,74.1559741 177.429019,77.024495 C176.237831,79.1894925 173.785267,80.2820704 171.463052,81.1004959 C166.066609,82.9873093 158.514397,86.0513654 153.099906,83.1344647 C148.363229,80.5844443 144.84381,75.7565402 144.157974,70.3601731 Z" id="Shape" fill="#3E7293" fill-rule="nonzero"></path>
                <path d="M144.157974,70.3601731 C143.415988,64.5142767 145.740209,58.4970351 144.358511,52.7741041 C143.295666,48.353397 140.14724,44.6624189 139.112471,40.2336485 C137.592402,33.6701179 141.069709,26.9291946 145.507586,21.8896287 C148.559755,18.41636 152.390006,15.2636076 156.956226,14.6326539 C159.775773,14.2294887 162.673528,14.852379 165.276494,16.0074475 C170.627311,18.4189471 174.739191,22.9590337 176.626872,28.5398399 C177.228482,30.3339253 177.57541,32.2106596 178.315391,33.9503178 C179.588799,36.9478515 181.925051,39.3668431 183.378943,42.281728 C185.338674,46.2774653 185.530186,50.9189381 183.906354,55.0640829 C182.223851,59.2852232 178.6924,62.816951 178.171004,67.3344178 C177.79199,70.5899773 179.007242,74.1559741 177.429019,77.024495 C176.237831,79.1894925 173.785267,80.2820704 171.463052,81.1004959 C166.066609,82.9873093 158.514397,86.0513654 153.099906,83.1344647 C148.363229,80.5844443 144.84381,75.7565402 144.157974,70.3601731 Z" id="Shape" fill="#000000" fill-rule="nonzero" opacity="0.2"></path>
                <path d="M158.70098,74.3627451 C158.70098,74.3627451 166.318243,71.3607167 167.278564,69.6720757 C168.238885,67.9834348 169.583333,58.0392157 169.583333,58.0392157" id="Shape" stroke="#333333" stroke-width="3"></path>
                <path d="M158.70098,124.240196 L158.70098,54.4117647" id="Shape" stroke="#333333" stroke-width="3"></path>
                <path d="M28.4870845,134.215686 C28.4870845,134.215686 25.2335836,125.693623 29.095837,119.417012 C30.7382707,116.794612 31.233696,113.83197 30.5077336,110.973875 C30.1491299,109.618763 29.6302876,108.291857 28.9577167,107.009804" id="Shape" stroke="#535461" stroke-width="2"></path>
                <path d="M29.9245783,102.674865 C29.9245783,103.785903 28.111799,107.009804 28.111799,107.009804 C28.111799,107.009804 26.2990196,103.785903 26.2990196,102.674865 C26.2990196,101.56306 27.1110522,100.661765 28.1127451,100.661765 C29.114438,100.661765 29.9264706,101.56306 29.9264706,102.674865 L29.9245783,102.674865 Z" id="Shape" fill="#3E7293" fill-rule="nonzero"></path>
                <path d="M33.2853997,107.68854 C32.7831299,108.436545 29.9264706,109.730392 29.9264706,109.730392 C29.9264706,109.730392 29.9787904,106.682776 30.4793161,105.933087 C30.8039348,105.448871 31.371313,105.168731 31.967725,105.198193 C32.564137,105.227654 33.0989735,105.562242 33.3707668,106.075919 C33.6425601,106.589597 33.6100183,107.204324 33.2853997,107.68854 Z" id="Shape" fill="#3E7293" fill-rule="nonzero"></path>
                <path d="M33.6084097,118.558012 C32.8428901,119.002402 29.9264706,118.696183 29.9264706,118.696183 C29.9264706,118.696183 31.4461809,115.807649 32.2117005,115.363259 C32.7063601,115.075414 33.29655,115.113892 33.7599515,115.464199 C34.223353,115.814506 34.4895642,116.423423 34.4583061,117.061575 C34.427048,117.699728 34.1030693,118.270166 33.6084097,118.558012 Z" id="Shape" fill="#3E7293" fill-rule="nonzero"></path>
                <path d="M31.0657467,126.01371 C30.3280607,126.666507 27.2058824,126.960784 27.2058824,126.960784 C27.2058824,126.960784 28.3557029,123.472981 29.0933889,122.816039 C29.8302705,122.163652 30.8695459,122.349682 31.4146756,123.23155 C31.9598053,124.113418 31.8043598,125.357178 31.0674784,126.009565 L31.0657467,126.01371 Z" id="Shape" fill="#3E7293" fill-rule="nonzero"></path>
                <path d="M25.0258899,110.123334 C25.7324135,110.821429 29.0196078,111.544118 29.0196078,111.544118 C29.0196078,111.544118 28.2145427,108.220128 27.5080191,107.522033 C27.0513443,107.070873 26.3928138,106.901887 25.7804897,107.07873 C25.1681656,107.255573 24.6950744,107.751378 24.5394251,108.37938 C24.3837757,109.007383 24.5692151,109.672175 25.0258899,110.123334 Z" id="Shape" fill="#3E7293" fill-rule="nonzero"></path>
                <path d="M23.524209,119.4649 C24.2896734,119.909243 27.2058824,119.603057 27.2058824,119.603057 C27.2058824,119.603057 25.6862818,116.714828 24.9208174,116.270485 C24.1561951,115.825562 23.2237049,116.179974 22.8380422,117.062088 C22.4523794,117.944201 22.7595868,119.019977 23.524209,119.4649 Z" id="Shape" fill="#3E7293" fill-rule="nonzero"></path>
                <path d="M23.3460181,129.641161 C24.0837041,130.293958 27.2058824,130.588235 27.2058824,130.588235 C27.2058824,130.588235 26.0560619,127.100432 25.3183758,126.44349 C24.5814943,125.791103 23.5422188,125.977133 22.9970891,126.859001 C22.4519594,127.740869 22.6074049,128.984629 23.3442864,129.637016 L23.3460181,129.641161 Z" id="Shape" fill="#3E7293" fill-rule="nonzero"></path>
                <path d="M29.9245783,102.674865 C29.9245783,103.785903 28.111799,107.009804 28.111799,107.009804 C28.111799,107.009804 26.2990196,103.785903 26.2990196,102.674865 C26.2990196,101.56306 27.1110522,100.661765 28.1127451,100.661765 C29.114438,100.661765 29.9264706,101.56306 29.9264706,102.674865 L29.9245783,102.674865 Z" id="Shape" fill="#000000" fill-rule="nonzero" opacity="0.25"></path>
                <path d="M33.2853997,107.68854 C32.7831299,108.436545 29.9264706,109.730392 29.9264706,109.730392 C29.9264706,109.730392 29.9787904,106.682776 30.4793161,105.933087 C30.8039348,105.448871 31.371313,105.168731 31.967725,105.198193 C32.564137,105.227654 33.0989735,105.562242 33.3707668,106.075919 C33.6425601,106.589597 33.6100183,107.204324 33.2853997,107.68854 Z" id="Shape" fill="#000000" fill-rule="nonzero" opacity="0.25"></path>
                <path d="M33.6084097,118.558012 C32.8428901,119.002402 29.9264706,118.696183 29.9264706,118.696183 C29.9264706,118.696183 31.4461809,115.807649 32.2117005,115.363259 C32.7063601,115.075414 33.29655,115.113892 33.7599515,115.464199 C34.223353,115.814506 34.4895642,116.423423 34.4583061,117.061575 C34.427048,117.699728 34.1030693,118.270166 33.6084097,118.558012 Z" id="Shape" fill="#000000" fill-rule="nonzero" opacity="0.25"></path>
                <path d="M31.0657467,126.01371 C30.3280607,126.666507 27.2058824,126.960784 27.2058824,126.960784 C27.2058824,126.960784 28.3557029,123.472981 29.0933889,122.816039 C29.8302705,122.163652 30.8695459,122.349682 31.4146756,123.23155 C31.9598053,124.113418 31.8043598,125.357178 31.0674784,126.009565 L31.0657467,126.01371 Z" id="Shape" fill="#000000" fill-rule="nonzero" opacity="0.25"></path>
                <path d="M25.0258899,110.123334 C25.7324135,110.821429 29.0196078,111.544118 29.0196078,111.544118 C29.0196078,111.544118 28.2145427,108.220128 27.5080191,107.522033 C27.0513443,107.070873 26.3928138,106.901887 25.7804897,107.07873 C25.1681656,107.255573 24.6950744,107.751378 24.5394251,108.37938 C24.3837757,109.007383 24.5692151,109.672175 25.0258899,110.123334 Z" id="Shape" fill="#000000" fill-rule="nonzero" opacity="0.25"></path>
                <path d="M23.524209,119.4649 C24.2896734,119.909243 27.2058824,119.603057 27.2058824,119.603057 C27.2058824,119.603057 25.6862818,116.714828 24.9208174,116.270485 C24.1561951,115.825562 23.2237049,116.179974 22.8380422,117.062088 C22.4523794,117.944201 22.7595868,119.019977 23.524209,119.4649 Z" id="Shape" fill="#000000" fill-rule="nonzero" opacity="0.25"></path>
                <path d="M23.3460181,129.641161 C24.0837041,130.293958 27.2058824,130.588235 27.2058824,130.588235 C27.2058824,130.588235 26.0560619,127.100432 25.3183758,126.44349 C24.5814943,125.791103 23.5422188,125.977133 22.9970891,126.859001 C22.4519594,127.740869 22.6074049,128.984629 23.3442864,129.637016 L23.3460181,129.641161 Z" id="Shape" fill="#000000" fill-rule="nonzero" opacity="0.25"></path>
                <path d="M169.952903,128.77451 C169.952903,128.77451 166.704903,117.693641 170.571177,109.537293 C172.209471,106.127519 172.703374,102.275778 171.978781,98.5599844 C171.62054,96.798379 171.10246,95.0734627 170.431035,93.4068627" id="Shape" stroke="#535461" stroke-width="2"></path>
                <path d="M173.208875,90.5540414 C173.208875,91.9839032 170.942673,96.127451 170.942673,96.127451 C170.942673,96.127451 168.676471,91.9860829 168.676471,90.5540414 C168.676471,89.1245323 169.691511,87.9656863 170.943627,87.9656863 C172.195744,87.9656863 173.210784,89.1245323 173.210784,90.5540414 L173.208875,90.5540414 Z" id="Shape" fill="#3E7293" fill-rule="nonzero"></path>
                <path d="M176.50226,97.3976541 C175.875853,98.5944946 172.303922,100.661765 172.303922,100.661765 C172.303922,100.661765 172.369026,95.7851834 172.995433,94.5861668 C173.62272,93.3885609 174.916267,93.0465952 175.884651,93.822365 C176.853034,94.5981349 177.129547,96.197872 176.50226,97.395478 L176.50226,97.3976541 Z" id="Shape" fill="#3E7293" fill-rule="nonzero"></path>
                <path d="M176.380415,109.425935 C175.157641,109.990319 170.490196,109.597131 170.490196,109.597131 C170.490196,109.597131 172.921113,105.992598 174.145978,105.435739 C175.369634,104.880392 176.861799,105.323009 177.478821,106.424352 C178.095844,107.525694 177.604071,108.868706 176.380415,109.424053 L176.380415,109.425935 Z" id="Shape" fill="#3E7293" fill-rule="nonzero"></path>
                <path d="M174.082468,118.758095 C173.050983,119.411164 168.676471,119.705882 168.676471,119.705882 C168.676471,119.705882 170.287309,116.214474 171.318794,115.561405 C172.350583,114.908481 173.805684,115.094785 174.568851,115.977527 C175.332019,116.860269 175.114258,118.105171 174.082468,118.758095 Z" id="Shape" fill="#3E7293" fill-rule="nonzero"></path>
                <path d="M167.562606,100.468212 C168.559843,101.454584 173.210784,102.47549 173.210784,102.47549 C173.210784,102.47549 172.071389,97.7767314 171.074152,96.7925173 C170.069575,95.8648274 168.523124,95.9133707 167.576688,96.9023033 C166.630252,97.8912359 166.624025,99.4650871 167.562606,100.461736 L167.562606,100.468212 Z" id="Shape" fill="#3E7293" fill-rule="nonzero"></path>
                <path d="M163.692689,111.239628 C164.915552,111.804072 169.583333,111.410842 169.583333,111.410842 C169.583333,111.410842 167.152241,107.805928 165.927288,107.249011 C165.135664,106.889726 164.191217,106.937858 163.449712,107.375276 C162.708206,107.812693 162.282294,108.572942 162.332413,109.369643 C162.382531,110.166345 162.901065,110.878462 163.692689,111.237746 L163.692689,111.239628 Z" id="Shape" fill="#3E7293" fill-rule="nonzero"></path>
                <path d="M163.270473,122.385546 C164.301958,123.038615 168.676471,123.333333 168.676471,123.333333 C168.676471,123.333333 167.065632,119.841925 166.034147,119.188856 C165.002358,118.535932 163.547257,118.722236 162.78409,119.604978 C162.020922,120.487719 162.238683,121.732622 163.270473,122.385546 Z" id="Shape" fill="#3E7293" fill-rule="nonzero"></path>
                <path d="M173.208875,90.5540414 C173.208875,91.9839032 170.942673,96.127451 170.942673,96.127451 C170.942673,96.127451 168.676471,91.9860829 168.676471,90.5540414 C168.676471,89.1245323 169.691511,87.9656863 170.943627,87.9656863 C172.195744,87.9656863 173.210784,89.1245323 173.210784,90.5540414 L173.208875,90.5540414 Z" id="Shape" fill="#FFFFFF" fill-rule="nonzero" opacity="0.5"></path>
                <path d="M176.50226,97.3976541 C175.875853,98.5944946 172.303922,100.661765 172.303922,100.661765 C172.303922,100.661765 172.369026,95.7851834 172.995433,94.5861668 C173.62272,93.3885609 174.916267,93.0465952 175.884651,93.822365 C176.853034,94.5981349 177.129547,96.197872 176.50226,97.395478 L176.50226,97.3976541 Z" id="Shape" fill="#FFFFFF" fill-rule="nonzero" opacity="0.5"></path>
                <path d="M176.380415,109.425935 C175.157641,109.990319 170.490196,109.597131 170.490196,109.597131 C170.490196,109.597131 172.921113,105.992598 174.145978,105.435739 C175.369634,104.880392 176.861799,105.323009 177.478821,106.424352 C178.095844,107.525694 177.604071,108.868706 176.380415,109.424053 L176.380415,109.425935 Z" id="Shape" fill="#FFFFFF" fill-rule="nonzero" opacity="0.5"></path>
                <path d="M174.082468,118.758095 C173.050983,119.411164 168.676471,119.705882 168.676471,119.705882 C168.676471,119.705882 170.287309,116.214474 171.318794,115.561405 C172.350583,114.908481 173.805684,115.094785 174.568851,115.977527 C175.332019,116.860269 175.114258,118.105171 174.082468,118.758095 Z" id="Shape" fill="#FFFFFF" fill-rule="nonzero" opacity="0.5"></path>
                <path d="M167.562606,100.468212 C168.559843,101.454584 173.210784,102.47549 173.210784,102.47549 C173.210784,102.47549 172.071389,97.7767314 171.074152,96.7925173 C170.069575,95.8648274 168.523124,95.9133707 167.576688,96.9023033 C166.630252,97.8912359 166.624025,99.4650871 167.562606,100.461736 L167.562606,100.468212 Z" id="Shape" fill="#FFFFFF" fill-rule="nonzero" opacity="0.5"></path>
                <path d="M163.692689,111.239628 C164.915552,111.804072 169.583333,111.410842 169.583333,111.410842 C169.583333,111.410842 167.152241,107.805928 165.927288,107.249011 C165.135664,106.889726 164.191217,106.937858 163.449712,107.375276 C162.708206,107.812693 162.282294,108.572942 162.332413,109.369643 C162.382531,110.166345 162.901065,110.878462 163.692689,111.237746 L163.692689,111.239628 Z" id="Shape" fill="#FFFFFF" fill-rule="nonzero" opacity="0.5"></path>
                <path d="M163.270473,122.385546 C164.301958,123.038615 168.676471,123.333333 168.676471,123.333333 C168.676471,123.333333 167.065632,119.841925 166.034147,119.188856 C165.002358,118.535932 163.547257,118.722236 162.78409,119.604978 C162.020922,120.487719 162.238683,121.732622 163.270473,122.385546 Z" id="Shape" fill="#FFFFFF" fill-rule="nonzero" opacity="0.5"></path>
                <g id="Group" opacity="0.6" transform="translate(62.573529, 19.950980)" fill="#3E7293" fill-rule="nonzero">
                    <rect id="Rectangle-path" x="0.0181072263" y="0.167978884" width="12.8762498" height="12.5007541" rx="6.25037707"></rect>
                    <rect id="Rectangle-path" x="15.9122281" y="0.167978884" width="12.8762498" height="12.5007541" rx="6.25037707"></rect>
                    <rect id="Rectangle-path" x="31.806349" y="0.167978884" width="12.8762498" height="12.5007541" rx="6.25037707"></rect>
                    <rect id="Rectangle-path" x="47.7004699" y="0.167978884" width="12.8762498" height="12.5007541" rx="6.25037707"></rect>
                </g>
                <rect id="Rectangle-path" fill="#3E7293" fill-rule="nonzero" x="62.5735294" y="39.9019608" width="12.6960784" height="12.6960784" rx="6.34803922"></rect>
                <rect id="Rectangle-path" fill="#3E7293" fill-rule="nonzero" opacity="0.6" x="77.9901961" y="39.9019608" width="12.6960784" height="12.6960784" rx="6.34803922"></rect>
                <rect id="Rectangle-path" fill="#3E7293" fill-rule="nonzero" opacity="0.6" x="95.2205882" y="39.9019608" width="12.6960784" height="12.6960784" rx="6.34803922"></rect>
                <rect id="Rectangle-path" fill="#3E7293" fill-rule="nonzero" opacity="0.6" x="110.637255" y="39.9019608" width="12.6960784" height="12.6960784" rx="6.34803922"></rect>
                <g id="Group" opacity="0.6" transform="translate(62.573529, 58.946078)" fill="#3E7293" fill-rule="nonzero">
                    <rect id="Rectangle-path" x="0.0865123036" y="0.167978884" width="12.8762498" height="12.5007541" rx="6.25037707"></rect>
                    <rect id="Rectangle-path" x="15.9806332" y="0.167978884" width="12.8762498" height="12.5007541" rx="6.25037707"></rect>
                    <rect id="Rectangle-path" x="31.8747541" y="0.167978884" width="12.8762498" height="12.5007541" rx="6.25037707"></rect>
                    <rect id="Rectangle-path" x="47.768875" y="0.167978884" width="12.8762498" height="12.5007541" rx="6.25037707"></rect>
                </g>
                <g id="Group" opacity="0.6" transform="translate(62.573529, 77.990196)" fill="#3E7293" fill-rule="nonzero">
                    <rect id="Rectangle-path" x="0.0221310544" y="0.167978884" width="12.8762498" height="12.5007541" rx="6.25037707"></rect>
                    <rect id="Rectangle-path" x="15.9162519" y="0.167978884" width="12.8762498" height="12.5007541" rx="6.25037707"></rect>
                    <rect id="Rectangle-path" x="31.8103728" y="0.167978884" width="12.8762498" height="12.5007541" rx="6.25037707"></rect>
                    <rect id="Rectangle-path" x="47.7044937" y="0.167978884" width="12.8762498" height="12.5007541" rx="6.25037707"></rect>
                </g>
                <path d="M68.9465636,55.0678759 L68.9465636,56.2254902 L64.3872549,53.141189 L64.8678711,52.4982925 L65.0904132,52.638488 L68.6192957,47.1007655 L68.6192957,43.8802744 L69.963899,44.0084531 L69.963899,43.4937353 C73.5170928,39.1236411 73.8742823,44.0084531 73.1430724,45.422425 C72.4118625,46.8363968 71.0653891,47.8638296 71.0653891,47.8638296 C70.3173483,48.536768 69.0082769,53.6238621 68.6922297,54.8996413 L68.9465636,55.0678759 Z" id="Shape" fill="url(#linearGradient-2)" fill-rule="nonzero"></path>
                <path d="M31.9476302,64.4570979 C31.9476302,64.4570979 35.6726464,71.8820653 34.5157096,79.3070328 C34.1273952,81.8030943 34.2895264,83.3284653 34.6778409,84.2583706 C34.5708417,85.2635678 34.3002567,86.2435888 33.8771926,87.1582068 C32.4640483,90.1681634 32.4640483,93.308633 34.2615038,96.9731939 L34.7759203,115.938368 C34.7759203,115.938368 35.4184405,124.835685 34.7759203,126.668985 C34.1334,128.502285 35.0321277,137.273168 35.0321277,137.273168 L34.904024,137.273168 L34.904024,142.114386 L44.5278166,142.377451 C44.5278166,142.377451 46.7836432,141.286444 47.1839673,140.470737 L52.019883,141.985912 C52.019883,141.985912 57.3421926,141.051928 54.2216659,139.759033 C51.8977842,138.7965 51.3213174,137.419995 51.1772007,136.783744 L58.7833595,114.502724 C58.7833595,114.502724 57.3702153,95.5375507 52.2320548,88.9853891 L51.7116334,85.1270979 L51.7836918,85.1270979 L52.8745751,62.5993266 L52.964648,62.6115622 L52.938627,62.6115622 C55.7510197,63.0694422 58.6202132,63.0245874 61.4174924,62.4790099 C62.2563798,62.3270897 63.0788738,62.0928425 63.8734811,61.7795417 L64.0195994,61.720403 L64.0356124,61.720403 L64.0496237,61.720403 C64.6449602,61.4718013 65.2060999,61.1455111 65.7189754,60.7497124 L68.9215686,55.7514714 L64.0416172,52.3255046 L62.3722655,54.7522311 C62.3722655,54.7522311 57.1420305,53.6265563 54.2697048,52.4397035 C52.932606,51.8835275 51.5096397,51.572181 50.0663012,51.5199945 L46.9297615,51.4098742 L45.3664957,50.4534584 L45.8548911,49.1666816 C45.90293,49.1442497 45.9509689,49.1218177 45.9990078,49.0953073 L46.0430435,48.8200064 C50.0574434,47.8043564 52.5044152,43.6664081 51.5094697,39.5760137 L51.6115524,39.5760137 C51.5675167,36.9249679 50.7708717,36.6659811 50.7708717,36.6659811 C50.7708717,33.9700715 48.4589997,31.9981013 45.8248668,31.7717428 C44.4608055,31.6760097 43.0904429,31.7984898 41.7635783,32.1347321 C39.8126766,32.6092996 38.3683273,34.2868253 38.160661,36.3193059 C34.7198749,37.2838787 35.8728085,39.1192181 35.8187647,39.8227649 C35.5545508,43.2487317 36.619413,45.2737228 37.8003692,46.4544578 C38.3002658,46.986472 38.8875671,47.4253977 39.5357744,47.751431 L38.7851666,49.2829198 L38.5649884,49.2829198 L37.9524924,51.1182591 L37.9224681,51.1182591 L37.2539268,51.5587406 C33.1290108,54.4039981 31.0466535,59.4657181 31.9476302,64.4570979 Z M42.2219495,137.273168 L42.2219495,131.385807 L44.6619252,113.982711 L44.6619252,105.083355 L49.0314633,114.368133 L44.3276545,134.507924 L44.0814551,134.438589 L42.9985783,138.402922 C42.6454754,138.10404 42.3778964,137.71379 42.2239511,137.273168 L42.2219495,137.273168 Z" id="Shape" fill="url(#linearGradient-3)" fill-rule="nonzero"></path>
                <path d="M69.14899,44.6592806 L69.14899,47.6865665 L65.2941176,52.9710566 L69.14899,55.3186275 C69.14899,55.3186275 70.8622666,49.1422569 71.7860922,48.415394 C71.7860922,48.415394 73.2369183,47.4468982 74.0263693,46.114971 C74.8158203,44.7830437 74.4210948,40.1802332 70.5977165,44.2978136 L70.5977165,44.7830437 L69.14899,44.6592806 Z" id="Shape" fill="#FDA57D" fill-rule="nonzero"></path>
                <path d="M39.0513674,52.2946803 L40.5251876,49.5239341 C40.6127829,49.3581197 40.7886885,49.2495866 40.9853763,49.2399993 L46.5826492,48.9713093 C46.7674884,48.9620963 46.9446806,49.0416451 47.0532337,49.1825738 C47.1617868,49.3235026 47.1868792,49.5065693 47.1198738,49.6687599 L45.6764626,53.1769743 C45.5887872,53.3903469 45.3613281,53.5232971 45.1189653,53.5028324 L39.4933107,53.0321485 C39.3138737,53.0175195 39.153694,52.9205524 39.0652964,52.7730439 C38.9768989,52.6255355 38.9716861,52.4465131 39.0513674,52.2946803 Z" id="Shape" fill="#FDA57D" fill-rule="nonzero"></path>
                <polygon id="Shape" fill="#EDEEF9" fill-rule="nonzero" points="38.971372 50.7843137 38.0882353 54.4117647 47.1568627 53.9553654 43.6732745 51.0270232"></polygon>
                <polygon id="Shape" fill="#EDEEF9" fill-rule="nonzero" points="62.5735294 54.1297649 63.0498066 53.504902 67.1078431 56.0063824 67.1078431 57.1323529"></polygon>
                <path d="M36.0580733,81.6176471 C36.4383385,83.5310808 36.214596,85.5186351 35.419128,87.2935425 C34.0861897,90.1455694 34.0861897,93.1263196 35.7828353,96.593805 L36.2684338,114.574849 C36.2684338,114.574849 36.8739574,123.00824 36.2684338,124.743994 C35.6629102,126.479748 36.506318,134.790449 36.506318,134.790449 L43.2948665,134.790449 L43.2948665,129.209085 L45.5970358,112.716405 L45.5970358,104.281003 L49.7256057,113.086485 L45.0072401,133.424775 L51.188299,136.029412 L58.9460784,113.211186 C58.9460784,113.211186 57.6013442,95.2301419 52.7532236,89.0313078 L51.8410062,82.2713203 L36.0580733,81.6176471 Z" id="Shape" fill="#7A7478" fill-rule="nonzero"></path>
                <path d="M35.3676471,139.423077 L35.3676471,135.122549 L42.359822,135.122549 C42.359822,135.122549 42.8513039,136.866516 46.0409614,137.215309 C49.2306189,137.564103 44.5685056,139.656863 44.5685056,139.656863 L35.3676471,139.423077 Z" id="Shape" fill="#333333" fill-rule="nonzero"></path>
                <path d="M43.5294118,136.543139 L44.741756,131.495098 L51.4492681,133.658872 C51.4492681,133.658872 51.4274776,135.85477 54.3890047,137.249865 C57.3505318,138.64496 52.2891929,139.656863 52.2891929,139.656863 L43.5294118,136.543139 Z" id="Shape" fill="#333333" fill-rule="nonzero"></path>
                <path d="M51.2712531,82.1754638 L35.3676471,81.6176471 C35.5646298,82.4394021 35.6054424,83.2835138 35.4884741,84.1166662 C36.2154168,85.5996007 37.7762639,85.1945399 37.7762639,85.1945399 L51.6911765,84.8238063 L51.2712531,82.1754638 Z" id="Shape" fill="#000000" fill-rule="nonzero" opacity="0.1"></path>
                <path d="M37.6150017,53.504902 L36.981173,53.9279479 C33.0619889,56.5407029 31.0826159,61.1867048 31.9362928,65.7693356 C31.9362928,65.7693356 35.4778106,72.5926574 34.3785139,79.4159793 C33.2792173,86.2393011 36.8207351,85.18656 36.8207351,85.18656 L50.8045807,84.7635141 L51.8424752,64.0693537 C51.8424752,64.0693537 60.2684354,65.2488136 64.0555618,62.3635232 L67.1078431,57.7724024 L62.4670287,54.6200277 L60.8824569,56.8502792 C60.8824569,56.8502792 55.9088824,55.8170333 53.1774769,54.7253018 C51.9034847,54.2137038 50.5475988,53.9279213 49.1724718,53.8811594 L37.6150017,53.504902 Z" id="Shape" fill="#4D8AF0" fill-rule="nonzero"></path>
                <path d="M39.0461768,87.9656863 C39.0461768,87.9656863 38.2869666,92.0612771 42.622549,98.8480392" id="Shape" fill="#000000" fill-rule="nonzero" opacity="0.1"></path>
                <path d="M53.504902,64.0379148 C53.504902,64.0379148 59.527681,61.6666667 62.1635373,61.6666667 C64.7993937,61.6666667 64.359745,63.0110152 64.359745,63.0110152 C64.359745,63.0110152 60.162729,65.2235388 53.504902,64.0379148 Z" id="Shape" fill="#000000" fill-rule="nonzero" opacity="0.1"></path>
                <path d="M46.8414653,49.8784497 L43.7669192,50.2581152 C43.6703502,50.2581152 43.5816112,50.395441 43.5294118,50.5920054 C44.2053943,51.8494789 45.051025,52.5980392 45.9697349,52.5980392 C46.297658,52.5928676 46.6186832,52.5000955 46.9014947,52.3287729 L47.1363921,50.8612717 C47.2146912,50.3738997 47.058093,49.8515231 46.8414653,49.8784497 Z" id="Shape" fill="#000000" fill-rule="nonzero" opacity="0.1"></path>
                <circle id="Oval" fill="#FDA57D" fill-rule="nonzero" cx="45.3431373" cy="44.4362745" r="7.25490196"></circle>
                <path d="M51.6911741,40.56959 L51.3158253,40.9212024 C50.9962464,41.225016 50.8480705,41.6771553 50.9228519,42.1203091 C50.9976334,42.563463 51.285032,42.9363558 51.6850543,43.1092485 C51.6850543,43.1092485 48.3987126,46.5215837 47.9417663,47.1549098 C47.4848199,47.7882358 48.017244,49.4552177 48.017244,49.4552177 C48.017244,49.4552177 49.4696805,52.2321087 41.8280692,51.5966646 C41.8280692,51.5966646 36.78534,50.4867554 37.319804,43.4248525 C37.3728425,42.7173913 36.250876,40.8830758 39.6126954,39.9341458 C39.8191201,37.9023824 41.2405718,36.2284516 43.1560694,35.7613957 C44.4556845,35.4257517 45.7979101,35.3035363 47.1339504,35.3991925 C49.7146801,35.6343438 51.6936839,37.8796222 51.6911741,40.56959 Z" id="Shape" fill="#000000" fill-rule="nonzero" opacity="0.1"></path>
                <path d="M51.7923456,40.2830023 C51.7923456,40.2830023 52.561783,40.5329112 52.5980392,43.1866054 L51.5043101,43.1082441 C51.5043101,43.1082441 48.9744322,50.2242955 49.2403111,49.2966674 C50.221243,45.8847749 48.2593791,46.5201366 47.8061764,47.1554983 C47.3529737,47.7908601 47.8807031,49.4555078 47.8807031,49.4555078 C47.8807031,49.4555078 49.3148377,52.2320386 41.769517,51.5966768 C41.769517,51.5966768 36.7903304,50.4869117 37.3180597,43.425925 C37.3704298,42.7185556 36.2626011,40.884478 39.5820588,39.9356712 C39.7842667,37.9051747 41.1851103,36.2309373 43.0747406,35.7613446 C44.3579795,35.4257442 45.6832919,35.3035446 47.002497,35.3991884 C49.5565458,35.6258008 51.7923456,37.59754 51.7923456,40.2830023 Z" id="Shape" fill="#72351C" fill-rule="nonzero"></path>
                <g id="Group" opacity="0.6" transform="translate(62.573529, 110.637255)" fill="#3E7293" fill-rule="nonzero">
                    <rect id="Rectangle-path" x="0.0221310544" y="0.0683634992" width="12.8762498" height="12.5007541" rx="6.25037707"></rect>
                    <rect id="Rectangle-path" x="15.9162519" y="0.0683634992" width="12.8762498" height="12.5007541" rx="6.25037707"></rect>
                    <rect id="Rectangle-path" x="31.8103728" y="0.0683634992" width="12.8762498" height="12.5007541" rx="6.25037707"></rect>
                    <rect id="Rectangle-path" x="47.7044937" y="0.0683634992" width="12.8762498" height="12.5007541" rx="6.25037707"></rect>
                </g>
                <g id="Group" opacity="0.1" transform="translate(62.573529, 110.637255)" fill="#000000" fill-rule="nonzero">
                    <rect id="Rectangle-path" x="0.0221310544" y="0.0683634992" width="12.8762498" height="12.5007541" rx="6.25037707"></rect>
                    <rect id="Rectangle-path" x="15.9162519" y="0.0683634992" width="12.8762498" height="12.5007541" rx="6.25037707"></rect>
                    <rect id="Rectangle-path" x="31.8103728" y="0.0683634992" width="12.8762498" height="12.5007541" rx="6.25037707"></rect>
                    <rect id="Rectangle-path" x="47.7044937" y="0.0683634992" width="12.8762498" height="12.5007541" rx="6.25037707"></rect>
                </g>
            </g>
        </g>
    </g>
</svg>